<?xml version="1.0" encoding="utf-8"?>
<!-- Generator: Adobe Illustrator 21.1.0, SVG Export Plug-In . SVG Version: 6.00 Build 0)  -->
<svg version="1.1" id="Layer_1" xmlns="http://www.w3.org/2000/svg" xmlns:xlink="http://www.w3.org/1999/xlink" x="0px" y="0px"
	 viewBox="0 0 800.3 90" style="enable-background:new 0 0 800.3 90;" xml:space="preserve">
<style type="text/css">
	.st0{fill:#ADA27E;}
	.st1{fill:#AFA282;}
</style>
<g>
	<g>
		<path d="M3.8,55.8c0.1,11.1,6.8,17.7,22.8,17.7c14.6,0,19.9-6.3,19.9-13.3c0-6.7-3.2-9.7-15.7-12.3l-11.1-2.3
			c-13-2.8-18-6.6-18-15.6c0-8.9,7.8-15.4,22.5-15.4c15,0,24.5,5.5,24.9,18.2h-3.8C44.8,26,41,18,25.3,18C10.8,18,6,23.3,6,30.2
			c0,6.3,2.8,9.5,14.1,11.8l12.3,2.4c11.9,2.3,18.4,6.2,18.4,15.7c0,8.1-5.3,16.8-23.9,16.8c-19.5,0-27-8.4-27-21h3.9V55.8z"/>
		<path d="M66.6,16h3.8v59.5h-3.8V16z"/>
		<path d="M89.2,16H95l28.9,54.7L152.8,16h5.8v59.5h-3.8V21.3h-0.2l-28.8,54.2H122L93.2,21.3H93v54.2h-3.8V16z"/>
		<path d="M177.3,16h31c8.3,0,18.1,2.9,18.1,16.5c0,10-5.7,16.8-18.7,16.8h-26.6v26.2h-3.8V16z M181.1,46h26.5
			c7.3,0,14.9-2.8,14.9-13.3c0-13.3-10.7-13.3-15.8-13.3h-25.6L181.1,46L181.1,46z"/>
		<path d="M241.2,16h3.8v56.2h39v3.3h-42.8V16z"/>
		<path d="M280,16h5.3l24.2,30.9L334.2,16h4.8l-27.6,34.5v25h-3.8v-25L280,16z"/>
	</g>
	<g>
		<path d="M476,16h32.1c11.4,0,17.3,5.3,17.3,14.7c0,5.8-2.7,11.8-11.7,13.7v0.2c11.6,1.2,13.7,9.6,13.7,14.7
			c0,6.4-3.5,16.3-19.9,16.3H476V16z M479.8,43h26.5c3.1,0,15.3,0,15.3-12.1c0-11.6-9.5-11.6-15.8-11.6h-25.9V43H479.8z M479.8,72.1
			h26.8c3,0,16.9,0,16.9-13.3c0-12.5-11.3-12.5-17.9-12.5h-25.8L479.8,72.1L479.8,72.1z"/>
		<path d="M544.5,16h47v3.3h-43.2V43h41.4v3.3h-41.4v25.8H592v3.3h-47.5V16z"/>
		<path d="M628.3,16h4.3l27.3,59.5h-4.3l-8.8-19.2H614l-8.8,19.2h-4.3L628.3,16z M615.5,53h29.8l-14.9-32.7L615.5,53z"/>
		<path d="M730.7,52.9c-1.3,11.3-11.4,23.9-29.3,23.9c-18.1,0-31.7-11.4-31.7-31.1c0-14.4,9.8-31.1,31.7-31.1
			c14.3,0,25.3,6.8,28.3,20h-3.8C723,23.2,712.6,18,701.4,18c-17,0-27.8,12.8-27.8,27.8c0,14.9,9.6,27.8,27.8,27.8
			c13.2,0,23.2-7.7,25.4-20.6L730.7,52.9L730.7,52.9z"/>
		<path d="M747,16h3.8v26.5h45.6V16h3.8v59.5h-3.8V45.8h-45.6v29.7H747V16z"/>
	</g>
	<g>
		<g>
			<path class="st0" d="M413.3,32.6c-0.7,0-1.4,0-2.1,0c-0.4,0-1,0.1-1.3,0.6c-0.2,0.4,0.2,0.7,0.6,0.7c0.7,0,1.4,0,2.1,0
				c0.4,0,1-0.1,1.3-0.6C414,32.9,413.7,32.6,413.3,32.6L413.3,32.6z"/>
		</g>
	</g>
	<g>
		<g>
			<path class="st0" d="M412.8,32.8l-1.9-2.5c0.1-0.3,1-0.7,1.3-1c0.9-1.1,2.3-2.1,3.4-3.1c2.6-2.4,5.1-4.9,7.9-7
				c6.6-5.5,18.1-10.3,22.7,0.5c5.4,12.6-24.4,17.6-31.5,11.9c-0.7-0.6-2.4,0.4-1.5,1.2c5.8,4.6,15.6,2.9,22.1,1
				c5.4-1.6,14.1-5.4,13.5-12.3c-0.7-8.3-10.7-11.4-17.4-8.9c-9.2,3.3-14.6,11.7-22.3,17.1c-0.3,0.2-0.5,0.6-0.2,0.9
				c0.8,1,1.3,2.1,2.1,3.1C411.6,34.4,413.4,33.6,412.8,32.8L412.8,32.8z"/>
		</g>
	</g>
	<g>
		<g>
			<path class="st0" d="M407.8,34.2c-4.5,7.8-6.9,17-6.9,26c0,4,1.3,7.5,1.9,11.3c0.1,0.9,0.7,0.9,0.5,1.6c-0.1,0.4-1,1.1-1.4,1.5
				c-0.8,0.9-1.6,1.8-2.4,2.7c0.6,0,1.1-0.1,1.7-0.1c-9.6-14.7,0.5-33.3,9.4-45.8c0.7-1-1.1-1.2-1.6-0.5
				c-9.3,12.9-19.5,31.9-9.6,47.1c0.4,0.5,1.3,0.2,1.7-0.1c1.4-1.5,2.8-3.1,4.3-4.6c0.1-0.1,0.2-0.4,0.2-0.5
				c-5.5-11.9-2.1-27.4,4.1-38.3C410.2,33.4,408.2,33.4,407.8,34.2L407.8,34.2z"/>
		</g>
	</g>
	<g>
		<g>
			<path class="st0" d="M408.9,33.6c7.7,7.4,9.6,18,10.2,28.3c0.1,2.4,0.2,4.8,0.2,7.2c0,1.2-0.4,3.4,0.2,4.4
				c1.1,1.8,4.6,3.3,6.3,4.6c0.5,0.3,1.9,0.1,1.9-0.6c-0.1-15.6-1.5-38.3-17.1-46.6c-0.5-0.3-2.3,0.5-1.5,0.9
				c15.3,8.2,16.6,30.9,16.7,46.2c0.6-0.2,1.2-0.4,1.9-0.6c-1.6-1.2-5.2-2.8-6.1-4.4c-0.8-1.5-0.2-4.6-0.3-6.4c0-2.7-0.1-5.3-0.4-8
				c-0.8-9.4-3.1-18.9-10.1-25.6C410.2,32.4,408.4,33.1,408.9,33.6L408.9,33.6z"/>
		</g>
	</g>
	<g>
		<g>
			<path class="st0" d="M408.5,33.4c4.5-4.4,9.3-8.6,14.5-12.1c3.6-2.3,7.8-4.8,12.3-4.1c3.8,0.6,7.6,4.5,6.9,8.6
				c-0.8,4.6-8.1,6.2-11.8,7.1c-2.6,0.6-10.1,2.6-12.6,0.7c-0.5-0.4-2.3,0.3-1.8,0.8c3.1,2.4,10.8,0.3,14.1-0.4c4.4-1,13-2.9,14-8.4
				c1.4-8.1-8.4-10.7-14.3-8.9c-8.8,2.7-16.6,10.1-22.9,16.3C406.1,33.8,408,33.8,408.5,33.4L408.5,33.4z"/>
		</g>
	</g>
	<g>
		<g>
			<path class="st1" d="M398.7,65.8c1,1,0.5,3.5,0.5,4.9c0,1,2,0.8,2-0.1c0-2.3,0-4.6-0.1-6.9c-0.1-1-2-0.8-2,0.1
				c0.1,1.9,0.4,3.8,0.6,5.7c0.1,0.9,2,0.5,1.9-0.3c-0.1-2.5-0.5-4.7-1.4-7.1c-0.3-0.8-2-0.5-1.9,0.3c0.1,2.6,0.8,5.1,1.3,7.7
				c0.2,0.9,2.1,0.4,1.9-0.5c-0.5-2.6-1.2-5.1-2-7.6c-0.3-0.9-2.1-0.4-1.9,0.5c0.4,2,0.7,4,0.9,6.1c0.6-0.1,1.3-0.2,1.9-0.3
				c-0.2-1.6-0.4-3.1-0.9-4.6c-0.2-0.8-2-0.5-1.9,0.3c0.1,1.8,0.3,3.7,0.4,5.5c0.6-0.1,1.3-0.2,1.9-0.3c-0.1-1.2-0.3-2.4-0.6-3.5
				c-0.2-0.8-2-0.5-1.9,0.3c0,1.1,0.1,2.2,0.1,3.4c0,1,1.9,0.8,2-0.1c0-3-0.1-6.1,0-9.1c0-1.1-1.8-0.7-2,0.1c-0.3,2-0.5,3.9-0.5,5.9
				c0.7,0,1.3-0.1,2-0.1c-0.1-2.9-0.5-5.5,0.3-8.3c-0.6,0-1.3,0-1.9-0.1c0,2.4-0.5,4.6-0.9,6.9c0.7,0,1.3-0.1,2-0.1
				c-0.1-3.6,0.2-7.4,2.1-10.6c-0.6,0-1.3,0-1.9-0.1c-0.1,2.5-0.9,4.9-1.4,7.4c0.7,0,1.3-0.1,2-0.1c0-7.3,3.2-13.9,6.1-20.4
				c-0.6,0-1.3,0-1.9-0.1c-0.2,6-3.1,11.8-3.6,17.9c-0.4,5.6,3.9,12.7,0.1,17c0.6,0,1.2,0,1.8,0c-1.2-2.9-2-5.8-2-8.9
				c-0.7,0-1.3,0.1-2,0.1c0.1,2.3,0.3,4.5,0.8,6.8c0.2,0.9,2.1,0.4,1.9-0.5c-0.4-2.1-1.1-4.1-1.5-6.2c-0.6,0.2-1.3,0.3-1.9,0.5
				c1,2.4,1.6,4.9,2.4,7.4c0.3,0.8,1.9,0.5,1.9-0.3c0.1-2.1,0.1-1.7-0.1-3.8c-0.6,0.2-1.3,0.3-1.9,0.5c0.1,1,0.4,1.9,0.8,2.9
				c0.3,0.8,1.9,0.5,1.9-0.3c0-1.7,0-3.4-0.3-5.1c-0.6,0.2-1.3,0.3-1.9,0.5c0.2,1.3,0.5,2.5,0.8,3.8c0.2,0.9,1.9,0.5,1.9-0.3
				c0-0.5,0-1.1,0-1.6c-0.6,0.1-1.3,0.2-1.9,0.3c0.4,1,0.4,1,1.1,1.9c0.4,0.6,1.8,0.3,1.9-0.5c0.1-1.3,0.1-1.1-0.5-2.2
				c-0.4-0.8-1.7-0.1-1.9,0.5c-0.2,0.6-0.3,1.2-0.2,1.9c0.6-0.1,1.3-0.2,1.9-0.3c-3.1-6.7-3.3-17.6-0.2-24.5c-0.6,0-1.3,0-1.9-0.1
				c-0.7,2.5-1.4,4.9-1.8,7.5c-0.2,1,1.8,0.8,2-0.1c0.4-2.6,1.1-5,1.8-7.5c0.3-1-1.6-0.7-1.9-0.1c-3.3,7.1-3.2,18.2,0.1,25.3
				c0.3,0.8,1.9,0.6,1.9-0.3c0-0.6,0-1.3,0.2-1.9c-0.6,0.2-1.2,0.3-1.9,0.5c0.1,0.5,0.2,1,0.3,1.5c0.6-0.2,1.2-0.3,1.9-0.5
				c-0.3-0.5-0.6-1.1-0.9-1.6c-0.3-0.8-1.9-0.6-1.9,0.3c0,0.5,0,1.1,0,1.6c0.6-0.1,1.3-0.2,1.9-0.3c-0.3-1.2-0.5-2.5-0.8-3.8
				c-0.2-0.9-2-0.4-1.9,0.5c0.3,1.6,0.3,3.1,0.2,4.7c0.6-0.1,1.3-0.2,1.9-0.3c-0.4-0.9-0.6-1.9-0.8-2.9c-0.2-0.9-2-0.4-1.9,0.5
				c0,1.1,0.1,2.3,0.1,3.4c0.6-0.1,1.3-0.2,1.9-0.3c-0.8-2.5-1.4-5-2.4-7.4c-0.4-0.9-2.1-0.4-1.9,0.5c0.4,2.1,1.1,4.1,1.5,6.2
				c0.6-0.2,1.3-0.3,1.9-0.5c-0.4-2.2-0.7-4.2-0.7-6.4c0-1-2-0.8-2,0.1c0,3.2,0.7,6.3,2,9.3c0.3,0.7,1.3,0.5,1.8,0
				c1.2-1.4,2.9-2.3,2.7-4.3c-0.2-2.7-1.9-5.8-2.4-8.6c-1.3-8.1,3.1-15,3.4-22.8c0-1-1.6-0.7-1.9-0.1c-3,6.7-6.1,13.4-6.2,20.8
				c0,1.1,1.8,0.7,2-0.1c0.5-2.5,1.3-4.8,1.4-7.4c0-1.1-1.6-0.7-1.9-0.1c-1.9,3.3-2.2,7.2-2.2,10.9c0,1.1,1.8,0.7,2-0.1
				c0.4-2.3,0.9-4.5,0.9-6.9c0-1-1.7-0.8-1.9-0.1c-0.8,2.9-0.6,5.7-0.4,8.7c0,1,1.9,0.8,2-0.1c0-2,0.2-3.9,0.5-5.9
				c-0.7,0-1.3,0.1-2,0.1c-0.1,3,0,6.1,0,9.1c0.7,0,1.3-0.1,2-0.1c0-1.1-0.1-2.2-0.1-3.4c-0.6,0.1-1.3,0.2-1.9,0.3
				c0.3,1.1,0.5,2.3,0.6,3.5c0.1,0.9,2,0.5,1.9-0.3c-0.1-1.9-0.3-3.6-0.4-5.5c-0.6,0.1-1.3,0.2-1.9,0.3c0.4,1.6,0.7,3,0.9,4.6
				c0.1,0.9,2,0.5,1.9-0.3c-0.2-2.2-0.4-4.3-0.9-6.4c-0.6,0.2-1.3,0.3-1.9,0.5c0.8,2.5,1.5,5,2,7.6c0.6-0.2,1.3-0.3,1.9-0.5
				c-0.5-2.5-1.2-4.8-1.2-7.3c-0.6,0.1-1.3,0.2-1.9,0.3c0.8,2.2,1.3,4.3,1.4,6.7c0.6-0.1,1.3-0.2,1.9-0.3c-0.2-1.8-0.4-3.5-0.6-5.3
				c-0.7,0-1.3,0.1-2,0.1c0.2,2.3,0.1,4.6,0.1,6.9c0.7,0,1.3-0.1,2-0.1c0-1.5,0.5-4.4-0.7-5.6C399.8,64.2,398,65,398.7,65.8
				L398.7,65.8z"/>
		</g>
	</g>
	<g>
		<g>
			<path class="st1" d="M412.7,33.8c0.5,3.5,2.9,5.7,4.8,8.5c0.6-0.2,1.2-0.5,1.8-0.7c-2.2-2.2-4.3-4.2-5.2-7.3
				c-0.2-0.6-2.1-0.1-1.9,0.5c1,4.3,4.4,7.2,6.2,11.1c0.3,0.6,2.2,0.1,1.9-0.5c-1.2-3.1-3.3-5.7-4.5-8.8c-0.6,0.2-1.2,0.4-1.9,0.6
				c1.7,2.8,3.7,5.4,5.3,8.3c0.3,0.6,2.1,0.2,1.9-0.5c-0.7-3.3-3-5.6-4.4-8.6c-0.6,0.2-1.2,0.4-1.9,0.6c2.7,4.3,4.2,9,5.8,13.8
				c0.6-0.2,1.3-0.3,1.9-0.5c-1.4-3.9-3.7-7.3-5-11.2c-0.6,0.2-1.2,0.4-1.9,0.6c3.6,3.5,4,9.4,4.7,14.1c0.6-0.2,1.3-0.3,1.9-0.5
				c-0.9-4.3-2.8-8.2-4.2-12.2c-0.6,0.2-1.2,0.4-1.9,0.6c3.4,3.9,3.5,9.9,4.1,14.8c0.1,0.6,2,0.2,1.9-0.5c-0.3-4-1.6-7.8-2.4-11.8
				c-0.6,0.2-1.3,0.3-1.9,0.5c1.4,5.4,1.8,10.9,2.8,16.4c0.1,0.7,1.9,0.1,1.9-0.5c0-4.6-0.9-9.1-1.5-13.6c-0.6,0.2-1.3,0.3-1.9,0.5
				c1.1,4.3,1.7,8.6,2.1,13c0.1,0.6,1.9,0.2,1.9-0.5c0-4.6-0.8-9-1.5-13.5c-0.6,0.2-1.3,0.3-1.9,0.5c1.9,4.3,2.1,8.9,2.4,13.5
				c0,0.6,1.9,0.2,1.9-0.5c-0.1-3.7-1-7.3-1.4-11c-0.6,0.2-1.3,0.3-1.9,0.5c1.3,4,1.7,8,1.9,12.1c0,0.6,1.9,0.2,1.9-0.5
				c0-2.6-0.6-5.2-1-7.8c-0.6,0.2-1.3,0.3-1.9,0.5c1.1,3.3,0.8,6.6,1.2,10c0.1,0.6,1.9,0.2,1.9-0.4c0.2-2,0.1-3.9-0.1-5.9
				c-0.6,0.2-1.3,0.3-1.9,0.5c0.6,3.5,0.5,7,1.2,10.4c0.1,0.6,1.9,0.2,1.9-0.4c0.3-3.2-0.8-6.1-1-9.3c-0.6,0.2-1.3,0.3-1.9,0.5
				c1.5,3.7,1.4,7.5,1.4,11.4c0.6-0.2,1.3-0.3,1.9-0.5c-0.1-1.9-0.3-3.7-0.6-5.5c-0.1-0.6-2-0.2-1.9,0.5c0.3,3.6,0.6,7.2,0.6,10.9
				c0.6-0.2,1.2-0.4,1.9-0.6c-2.2-1.9-3.8-3.3-4.1-6.4c-0.3-4,0-8,0-12c-0.6,0.2-1.3,0.3-1.9,0.5c0,4.3,1,8.4,0.8,12.7
				c-0.1,1.9,0.2,2.9,2,3.6c0.4,0.2,1.7,0,1.7-0.6c0.1-4.7-0.7-9.3-1.2-14c-0.1-0.6-1.9-0.2-1.9,0.4c-0.1,4.2-0.7,8.5,0.6,12.5
				c0.2,0.7,1.9,0.1,1.9-0.5c0-0.3,0-0.6,0-0.9c0-0.6-1.9-0.2-1.9,0.5c0,0.3,0,0.6,0,0.9c0.6-0.2,1.3-0.3,1.9-0.5
				c-1.3-4-0.7-8.1-0.6-12.2c-0.6,0.1-1.3,0.3-1.9,0.4c0.6,4.6,1.4,9.1,1.3,13.7c0.6-0.2,1.2-0.4,1.7-0.6c-2.3-1-1.6-5.5-1.8-7.5
				c-0.2-2.8-0.7-5.6-0.7-8.4c0-0.6-1.9-0.2-1.9,0.5c0,4.4-0.2,9,0.1,13.4c0.2,2.3,2.5,3.9,4.1,5.2c0.5,0.4,1.9,0.1,1.9-0.6
				c-0.1-3.6-0.4-7.2-0.6-10.9c-0.6,0.2-1.3,0.3-1.9,0.5c0.3,1.8,0.5,3.6,0.6,5.5c0,0.6,1.9,0.2,1.9-0.5c0-3.9,0.1-7.7-1.4-11.4
				c-0.3-0.6-2-0.1-1.9,0.5c0.2,3.1,1.3,5.9,1,9c0.6-0.1,1.3-0.3,1.9-0.4c-0.8-3.4-0.7-6.9-1.2-10.4c-0.1-0.6-2-0.2-1.9,0.5
				c0.2,1.9,0.3,3.7,0.1,5.6c0.6-0.1,1.3-0.3,1.9-0.4c-0.4-3.4-0.1-6.7-1.2-10c-0.2-0.6-2-0.1-1.9,0.5c0.4,2.6,1,5.1,1,7.8
				c0.6-0.2,1.3-0.3,1.9-0.5c-0.2-4.2-0.6-8.2-1.9-12.1c-0.2-0.6-2-0.1-1.9,0.5c0.4,3.7,1.3,7.3,1.4,11c0.6-0.2,1.3-0.3,1.9-0.5
				c-0.3-4.6-0.4-9.2-2.4-13.5c-0.3-0.6-2-0.2-1.9,0.5c0.7,4.5,1.5,8.9,1.5,13.5c0.6-0.2,1.3-0.3,1.9-0.5c-0.4-4.4-1-8.7-2.1-13
				c-0.2-0.6-2-0.1-1.9,0.5c0.6,4.6,1.5,9,1.5,13.6c0.6-0.2,1.3-0.3,1.9-0.5c-0.9-5.5-1.4-11-2.8-16.4c-0.2-0.6-2.1-0.1-1.9,0.5
				c0.8,3.9,2,7.7,2.4,11.8c0.6-0.2,1.3-0.3,1.9-0.5c-0.6-5-0.7-11-4.2-15c-0.3-0.4-2.1,0-1.9,0.6c1.5,4.1,3.3,8,4.2,12.3
				c0.1,0.6,2,0.2,1.9-0.5c-0.7-4.9-1.1-10.7-4.8-14.4c-0.4-0.4-2.1,0-1.9,0.6c1.3,3.9,3.6,7.4,5,11.3c0.2,0.6,2.1,0.1,1.9-0.5
				c-1.6-4.9-3.2-9.6-5.9-14c-0.3-0.5-2.1,0.1-1.9,0.6c1.3,3,3.7,5.4,4.4,8.6c0.6-0.2,1.3-0.3,1.9-0.5c-1.6-3-3.7-5.6-5.4-8.5
				c-0.3-0.5-2.1,0.1-1.9,0.6c1.2,3.1,3.3,5.7,4.5,8.8c0.6-0.2,1.3-0.3,1.9-0.5c-1.9-3.9-5.3-6.9-6.2-11.1c-0.6,0.2-1.3,0.3-1.9,0.5
				c0.9,3.2,3,5.2,5.3,7.5c0.4,0.4,2.2-0.1,1.8-0.7c-1.9-2.7-4.2-4.9-4.7-8.3C414.6,32.7,412.6,33.1,412.7,33.8L412.7,33.8z"/>
		</g>
	</g>
	<g>
		<g>
			<path class="st1" d="M444.8,24.1c0.2,1-0.1,1.9-0.9,2.5c0.6-0.1,1.2-0.1,1.8-0.2c0.3-1.1,0.8-2.1,1.2-3.1
				c0.2-0.4-1.7-0.2-1.9,0.3c-0.4,0.9-0.9,1.7-1.5,2.5c0.6-0.1,1.3-0.2,1.9-0.3c0.5-0.9,1-1.8,1.2-2.8c0.2-0.5-1.7-0.1-1.9,0.3
				c-0.4,0.7-0.8,1.3-1.1,2c0.6-0.1,1.3-0.2,1.9-0.3c0.3-0.9,0.6-1.8,0.9-2.8c0.1-0.5-1.7-0.2-1.9,0.3c-0.3,0.9-0.7,1.8-1,2.6
				c-0.2,0.4,1.7,0.2,1.9-0.3c0.3-0.7,0.5-1.4,0.6-2.1c0.1-0.5-1.8-0.2-1.9,0.3c-0.3,1.1-0.7,2.2-1,3.4c-0.2,0.5,1.6,0.1,1.8-0.2
				c1-1.3,0.9-1.2,1.7-2.6C446.1,23.8,445.5,23.9,444.8,24.1c0,0.3-0.1,0.7-0.1,1c-0.1,0.7,1.6,0,1.8-0.2c0.3-0.3,0.7-0.6,1-0.9
				c-0.6,0.1-1.2,0.1-1.8,0.2c-0.2,0.5-0.3,0.9-0.5,1.4c0.6-0.1,1.3-0.3,1.9-0.4c0-0.2,0-0.3,0-0.5c0-0.5-1.7,0.1-1.8,0.3
				c-0.8,1-1.8,1.9-2.9,2.6c0.5,0,1.1,0,1.6,0c0.5-0.6,1-1.2,1.5-1.9c-0.6,0-1.2,0.1-1.8,0.1c-0.6,0.9-1.3,1.8-2.1,2.5
				c0.6,0,1.2-0.1,1.8-0.1c0.8-1,1.6-1.9,2.3-3c0.2-0.3-1.5-0.2-1.8,0.2c-0.7,0.9-1.5,1.9-2.1,2.9c-0.5,0.6,1.5,0.1,1.8-0.1
				c0.7-0.6,1.5-1.2,2.2-1.8c-0.6,0-1.1,0.1-1.7,0.1c-0.5,0.6-1,1.2-1.5,1.8c-0.5,0.5,1.4,0.2,1.6,0c0.5-0.3,1-0.7,1.5-1
				c0.8-0.6-1.1-0.4-1.5-0.1c0.1,0.2,0.2,0.4,0.2,0.6c0.8-0.7-1-0.4-1.3-0.2c-1.4,0.7-2.6,1.4-3.8,2.4c0.5,0,1.1,0,1.6,0
				c-0.9,0.2-1.8,0.4-2.7,0.5c-1.1,0.4-0.4,0.8,0.4,0.6c1.6-0.4,2.1-0.7,3.6-1.3c1-0.4-0.2-0.6-0.7-0.5c-2.2,0.6-4.2,1.3-6.2,2.5
				c-0.8,0.5,1,0.4,1.3,0.2c5.2-2.7,9.5-5.1,10-11.4c0-0.4-1.8-0.1-1.9,0.4c-0.3,1.3-0.4,2.4-0.4,3.7c0,0.4,1.9,0.1,1.9-0.5
				c0.2-1.1,0.2-2.3-0.1-3.4c-0.1-0.5-1.8,0-1.9,0.4c-0.5,2-0.4,4.1-1.1,6.1c-1.2,3.4,0.3,0.9,1.3-0.2c1.7-2.1,1.6-5.1,1.4-7.6
				c0-0.4-1.9,0-1.9,0.5c0,0.4,0,0.8,0,1.2c0.6-0.2,1.3-0.3,1.9-0.5c-0.1-0.8-0.3-1.7-0.5-2.5c-0.1-0.5-2,0-1.9,0.5
				c0.2,1.2,0.4,2.3,0.8,3.5c0.1,0.5,2,0,1.9-0.5c-0.1-1.5-0.3-2.8-1-4.1c-0.3-0.5-1.9,0-1.9,0.5c0,1.7,0.5,2.5,1.4,3.8
				c0.3,0.4,1.9-0.1,1.9-0.6c0.2-1,0.1-1.9-0.4-2.8c-0.6,0.2-1.3,0.3-1.9,0.5c0.3,1,0.7,2,1.2,2.9c0.2,0.4,1.9,0,1.9-0.4
				c0-0.3,0.1-0.7,0.1-1c-0.6,0.1-1.3,0.3-1.9,0.4c0,1-0.1,2.1-0.1,3.1c0,0.4,1.9,0.1,1.9-0.4c0.4-2.8,0.1-5.9-2.7-7.1
				c-0.3-0.1-2,0.3-1.8,0.7c0.7,1.1,1.1,2,1.5,3.2c0.6-0.2,1.3-0.3,1.9-0.5c-1.1-1.9-2.1-3.4-4.2-4.3c-0.3-0.1-1.8,0.1-1.8,0.7
				c0.2,1.7,1.7,2.5,2.5,4c0.6-0.2,1.3-0.3,1.9-0.5c-0.8-1.2-1.4-2.4-2.2-3.6c-0.3-0.4-2,0-1.9,0.5c0.1,1.9,1,2.7,2.6,3.8
				c0.4,0.3,2.2-0.3,1.8-0.7c-1.3-1.4-2.7-2.6-4.1-3.8c-0.6,0.2-1.2,0.5-1.8,0.7c0.9,0.6,1.9,1.1,2.8,1.8c0.6-0.2,1.2-0.5,1.8-0.7
				c-1.4-1-2.5-2-4.1-2.6c-0.5-0.2-2.2,0.5-1.6,0.8c0.9,0.3,1.8,0.7,2.6,1c0.5-0.3,1.1-0.5,1.6-0.8c-1.2-0.3-2.4-0.7-3.6-1
				c-0.5,0.3-1.1,0.5-1.6,0.8c1.3,0.2,2.6,0.7,3.6,1.6c0.6-0.2,1.2-0.5,1.8-0.7c-1.6-1-2.9-1.2-4.8-1.5c-0.3,0-2.1,0.6-1.4,0.8
				c1.3,0.4,2.6,0.7,3.9,1.2c0.5-0.3,1.1-0.5,1.6-0.8c-1.5-0.3-2.8-0.9-4.2-1.5c-0.3,0.3-0.6,0.5-1,0.8c2-0.3,3.9-0.2,5.9,0.3
				c0.5,0.3,2.1-0.5,1.8-0.7c-1.5-0.9-2.9-1.5-4.6-2.1c-0.4-0.1-2.1,0.5-1.7,0.7c1.9,1,3.7,2,5.4,3.4c0.4,0.3,1.9-0.1,1.9-0.6
				c0-0.2,0-0.4,0-0.6c-0.6,0.2-1.2,0.4-1.9,0.6c0.2,0.3,0.5,0.7,0.8,1c0.3,0.3,2-0.2,1.9-0.6c-1.3-3.4-4.1-5.2-7.7-4.8
				c-0.2,0-1.6,0.5-1,0.8c1.6,0.7,3,1.3,4.3,2.6c0.6-0.2,1.1-0.5,1.7-0.7c-2.5-0.9-4.4-1.4-7-1.1c-0.3,0-1.8,0.7-0.8,0.8
				c1.4,0.5,2.8,1,4.2,1.5c0.6-0.2,1.1-0.5,1.7-0.7c-1.9-0.4-3.7-1-5.7-1.3c-0.4,0-2.1,0.7-1.4,0.8c1.2,0.2,2.3,0.6,3.4,1.2
				c0.5,0.3,2.2-0.5,1.8-0.7c-1-0.6-1.6-1.1-2.9-1.1c-3.8-0.1-0.2,0.5,1.2,0.4c0.3,0,2.1-0.7,1-0.8c-2.4-0.3-4.3-0.5-6.6,0.2
				c-0.5,0.1-1.4,0.9-0.3,0.8c2.6-0.3,4.9-1,7.4-1.9c0.2-0.1,1-0.5,0.4-0.7c-3.1-0.8-6.1-0.5-8.8,1.3c-0.3,0.2-0.3,0.5,0.1,0.5
				c2,0,3.7-0.4,5.7-0.8c0.3-0.1,1.8-0.7,0.8-0.8c-2.4-0.2-4.3,0.1-6.4,1.1c-0.3,0.2-0.6,0.6-0.1,0.6c2.8,0.1,5.1-0.9,7.7-1.9
				c1.3-0.5,0.1-0.8-0.7-0.5c-1,0.3-4,0.7-5.5,1c-0.2,0-1.3,0.5-0.7,0.7c1.5,0.6,5.3,0,6.1,1.4c0.5-0.2,0.9-0.5,1.4-0.7
				c-3,0.2-5.5-0.9-8.4,0.3c-0.1,0-1,0.5-0.4,0.7c1.9,0.4,3.9,0.3,5.8,0.8c0.5-0.3,0.9-0.5,1.4-0.8c-1.7-0.1-3.3-0.1-5-0.1
				c-0.4,0-2,0.8-1,0.8c1.5,0,2.9,0.1,4.4,0.2c0.3,0,2.1-0.5,1.4-0.8c-3.6-1.5-6.4-0.8-9.9,1c-1.2,0.6,0.7,0.5,1.1,0.3
				c1.6-0.7,3.2-1.4,4.7-2.4c0.5-0.3,0-0.5-0.3-0.5c-2.7,0.1-5,1.3-7.3,2.7c-0.8,0.5,1.1,0.3,1.5,0.1c1.7-1.1,2.9-1.7,4.5-2.8
				c0.7-0.5-0.6-0.5-0.8-0.4c-2.4,0.7-4.2,1.9-6.3,3.4c-0.8,0.6,1.2,0.3,1.5,0.1c1.5-0.9,3-1.8,4.5-2.9c0.8-0.6-1.1-0.3-1.5-0.1
				c-2.6,1.6-5,3-7.1,5.2c0.6,0,1.2-0.1,1.8-0.1c0.7-0.8,1.5-1.6,2.1-2.5c0.5-0.6-1.4-0.2-1.6,0c-1.4,1.1-2.8,2.2-4.2,3.1
				c-0.8,0.5,0.8,0.4,1.1,0.3c3.5-1.4,6.7-3.3,10.2-4.6c0.5-0.2,0.9-0.7,0.1-0.7c-2.9,0.2-5.3,1.2-7.7,2.9c-0.8,0.5,0.8,0.4,1.1,0.3
				c1-0.4,2-0.9,3-1.3c0.5-0.2,1-0.4,1.5-0.6c2.6,0.5,4-0.1,4.5-1.9c-2.4,0.4-4.7,0.9-7.1,1.7c-1.1,0.4-0.4,0.8,0.4,0.6
				c2.3-0.6,4.5-1.4,6.8-2.1c0.8-0.2,1.2-0.9,0.1-0.7c-1.5,0.2-2.8,0.5-4.3,0.9c-1.1,0.3-0.9,1,0.2,0.7c-0.5,0.1,3.1-1.4,1.9-0.9
				c-4.5,1.5,2.4,0.5,3.4,0.4c0.8-0.1,1.7-1,0.3-0.8c-1.7,0.2-3.4,0.6-5.1,1.1c-1.6,0.5-9.3,3.5-1.4,0.5c-1.7,0.6-3.4,1.2-5.1,2
				c-0.5,0.3-0.9,0.6-1.4,0.9c0.1,0.2,0.3,0.3,0.4,0.5c1-0.7,1.9-1.4,2.8-2.2c-0.5,0-1.1,0-1.6,0c-0.7,0.9-1.4,1.7-2.1,2.5
				c-0.5,0.5,1.4,0.2,1.8-0.1c1.4-1.4,2.9-2.5,4.5-3.6c3.3-2.1-1.7,0.1-2.1,0.4c1.5-0.9,7.3-0.8,9.7,0.1c0.5-0.3,0.9-0.5,1.4-0.8
				c-1-0.2-1.9-0.2-2.9-0.2c0.2,1,0.9,1.4,2,1c0.3,0,2.1-0.7,1.4-0.8c-1.3-0.3-2.2-0.2-3.4-0.3c1.5,0.2,2.7,0.4,4.1,0.3
				c0.2,0,1.6-0.3,1.4-0.7c-1.1-1.9-7.5-0.9-3.1-1.5c0.8-0.1,0.2-0.7,0-0.6c-4.5,1.8-0.1,0.3-1.3,0.5c0.5,0.1,1,0.1,1.4,0.2
				c-1.2,1.6-1.3,1.9-0.1,1c-1.4,0.1-2.3,0.3-3.7,0.5c-0.8,0.1-1.7,1-0.3,0.8c1.6,0.3,3.2,0.5,4.8,0.8c0.6-0.2,1.2-0.5,1.8-0.7
				c-1.2-0.7-2.2-1-3.6-1.3c-0.5,0.3-0.9,0.5-1.4,0.8c1.8,0.2,3.5,0.9,5.3,1.2c0.3,0,2.2-0.4,1.7-0.7c-1.7-1.1-1.1-0.8-3-1.5
				c-1.4-0.6,3.5,1.9,3.2,1.8c0.3,0.1,2.1-0.3,1.7-0.7c-1.3-1.4-2.8-1.9-4.5-2.7c-0.3,0.3-0.6,0.5-1,0.8c3-0.4,5.1,2,6.1,4.5
				c0.6-0.2,1.2-0.4,1.9-0.6c-0.2-0.3-0.5-0.7-0.8-1c-0.3-0.4-1.9,0.1-1.9,0.6c0,0.2,0,0.4,0,0.6c0.6-0.2,1.2-0.4,1.9-0.6
				c-1.7-1.4-3.4-2.4-5.4-3.4c-0.6,0.2-1.1,0.5-1.7,0.7c1.6,0.4,3,1,4.4,1.9c0.6-0.2,1.2-0.5,1.8-0.7c-2.4-1.3-4.7-0.7-7.4-0.4
				c-0.2,0-1.6,0.5-1,0.8c1.4,0.6,2.7,1.2,4.2,1.5c0.4,0.1,2.3-0.5,1.6-0.8c-1.3-0.5-2.6-0.8-3.9-1.2c-0.5,0.3-0.9,0.5-1.4,0.8
				c1.4,0.4,2.8,0.9,4.2,1.3c0.4,0.3,2.2-0.4,1.8-0.7c-1.3-0.9-2.3-1.3-3.9-1.7c-0.4-0.1-2.2,0.6-1.6,0.8c1.2,0.3,2.4,0.7,3.6,1
				c0.4,0.1,2.3-0.5,1.6-0.8c-0.9-0.3-1.8-0.7-2.6-1c-0.5,0.3-1.1,0.5-1.6,0.8c1.5,0.5,2.6,1.6,3.9,2.4c0.4,0.3,2.2-0.4,1.8-0.7
				c-0.9-0.7-1.8-1.2-2.8-1.8c-0.4-0.3-2.2,0.4-1.8,0.7c1.5,1.2,2.9,2.4,4.1,3.8c0.6-0.2,1.2-0.5,1.8-0.7c-1.4-1-2.4-1.9-2.4-3.7
				c-0.6,0.2-1.3,0.3-1.9,0.5c0.8,1.2,1.5,2.4,2.2,3.6c0.3,0.5,2.1-0.2,1.9-0.5c-0.8-1.4-2.3-2.4-2.5-4c-0.6,0.2-1.2,0.4-1.8,0.7
				c2,0.8,2.8,2.2,3.8,4c0.3,0.5,2.1,0,1.9-0.5c-0.4-1.2-0.8-2.2-1.5-3.3c-0.6,0.2-1.2,0.4-1.8,0.7c2.6,1.2,2.6,4.3,2.3,6.6
				c0.6-0.1,1.3-0.3,1.9-0.4c0-1,0.1-2.1,0.1-3.1c0-0.4-1.9-0.1-1.9,0.4c0,0.3-0.1,0.7-0.1,1c0.6-0.1,1.3-0.3,1.9-0.4
				c-0.5-0.9-1-1.9-1.2-2.9c-0.2-0.5-2.1,0.1-1.9,0.5c0.4,0.9,0.6,1.8,0.4,2.7c0.6-0.2,1.2-0.4,1.9-0.6c-1.1-1.1-1.5-2.3-1.3-3.7
				c-0.6,0.2-1.3,0.3-1.9,0.5c0.7,1.3,0.9,2.6,1,4.1c0.6-0.2,1.3-0.3,1.9-0.5c-0.3-1.2-0.6-2.3-0.8-3.5c-0.6,0.2-1.3,0.3-1.9,0.5
				c0.2,0.8,0.4,1.7,0.5,2.5c0.1,0.5,1.9,0,1.9-0.5c0-0.4,0-0.8,0-1.3c-0.6,0.2-1.3,0.3-1.9,0.5c0.4,4.1-0.4,7.3-4,9.7
				c-0.8,0.5,0.8,0.4,1.1,0.3c4.6-1.9,4.2-4.6,5.2-9.2c-0.6,0.1-1.3,0.3-1.9,0.4c0.3,1.1,0.3,2.2,0.1,3.4c0.6-0.2,1.3-0.3,1.9-0.5
				c0-1.2,0.1-2.4,0.4-3.5c-0.6,0.1-1.3,0.3-1.9,0.4c-0.3,3.8-1.8,6.1-5,8.2c-0.1,0.1-6.5,3.9-0.7,1.4c1.6-0.7,1.4-0.4,2.9-1.3
				c0.8-0.5-0.6-0.5-0.8-0.4c-1.3,0.4-1.7,0.6-2.9,1.3c-0.8,0.5,1,0.4,1.3,0.2c1.5-0.8,1.6-0.9,3.1-1.9c0.8-0.6-1-0.4-1.3-0.2
				c-1.1,0.6-1.3,0.7-2.2,1.6c-0.5,0.5,1.3,0.2,1.6,0c1.1-0.3,1.4-0.7,0.9-1.4c-0.8,0.6,1,0.4,1.3,0.2c4.3-2.3-1.4,0-0.3-0.7
				c0.5,0,1.1,0,1.6,0c1.1-1,0.8-0.7,1.7-2c0.3-0.4-1.5-0.1-1.7,0.1c-1,0.7-1.6,1.2-2.5,2c0.6,0,1.2-0.1,1.8-0.1
				c0.7-1,1.4-1.9,2.1-2.9c-0.6,0.1-1.2,0.1-1.8,0.2c-0.7,1-1.4,1.9-2.2,2.8c-0.5,0.5,1.5,0.2,1.8-0.1c0.8-0.7,1.6-1.6,2.1-2.5
				c0.4-0.6-1.5-0.3-1.8,0.1c-0.5,0.6-1,1.2-1.5,1.9c-0.5,0.6,1.4,0.2,1.6,0c1.2-0.9,2.1-1.8,3.1-2.9c-0.6,0.1-1.2,0.2-1.8,0.3
				c0,0.2,0,0.3,0,0.5c0,0.5,1.8,0,1.9-0.4c0.2-0.5,0.3-0.9,0.5-1.4c0.2-0.6-1.6,0-1.8,0.2c-0.3,0.3-0.7,0.6-1,0.9
				c0.6-0.1,1.2-0.1,1.8-0.2c0-0.4,0.1-0.8,0.1-1.1C446.8,23,445,23.6,444.8,24.1c-0.5,0.7-1,1.5-1.5,2.3c0.6-0.1,1.2-0.1,1.8-0.2
				c0.3-1.1,0.7-2.2,1-3.4c-0.6,0.1-1.3,0.2-1.9,0.3c-0.1,0.7-0.3,1.5-0.6,2.1c0.6-0.1,1.3-0.2,1.9-0.3c0.3-0.9,0.7-1.8,1-2.6
				c-0.6,0.1-1.3,0.2-1.9,0.3c-0.2,0.9-0.5,1.9-0.9,2.8c-0.2,0.5,1.7,0.1,1.9-0.3c0.4-0.7,0.8-1.3,1.1-2c-0.6,0.1-1.3,0.2-1.9,0.3
				c-0.3,1-0.7,1.9-1.2,2.8c-0.2,0.4,1.6,0.1,1.9-0.3c0.6-0.8,1.1-1.6,1.5-2.5c-0.6,0.1-1.3,0.2-1.9,0.3c-0.5,1-0.9,2.1-1.2,3.1
				c-0.2,0.5,1.6,0.1,1.8-0.2c0.7-0.9,1.6-1.8,1.1-3C446.5,23,444.7,23.7,444.8,24.1L444.8,24.1z"/>
		</g>
	</g>
	<g>
		<g>
			<path class="st0" d="M402.2,29.2c-9.5-6.5-32.9-15.9-39.5-1.1c-6.5,14.7,20.7,14.3,28.4,13.1c3.9-0.6,13.5-2.3,13-7.9
				c-0.1-0.9-2-0.5-1.9,0.5c0.5,5.6-13.7,6.4-17,6.5c-6,0.3-16,0.3-20.1-5c-2.3-3-1-7,1.2-9.7c3.5-4.1,9.2-4.2,14.1-3.4
				c6.9,1.2,14.5,4.1,20.4,8.1C401.5,30.9,403.2,29.9,402.2,29.2L402.2,29.2z"/>
		</g>
	</g>
	<g>
		<g>
			<path class="st0" d="M402.9,31c-2.1-2-5.7-3-8.3-3.9c-4.7-1.7-9.6-3-14.6-3.4c-6.3-0.5-17.2,3.5-13,12c2.9,5.9,12.7,5.8,18.2,5.5
				c6.3-0.3,14.4-1.3,19.4-5.5c0.8-0.7-1.1-0.7-1.6-0.3c-4.2,3.5-11,4.3-16.2,4.7c-5,0.4-12.6,0.7-16.6-3.1c-3-2.9-2.4-7.5,0.6-10.2
				c3.9-3.5,10.9-1.8,15.3-0.7s11.6,2.6,15.1,5.8C401.6,32.3,403.5,31.5,402.9,31L402.9,31z"/>
		</g>
	</g>
	<g>
		<g>
			<path class="st1" d="M374.4,24.3c1.6-0.5,3.2-0.6,4.7-0.2c0.5-0.2,1-0.5,1.4-0.7c-1.6-0.1-3.2-0.3-4.8-0.6
				c-0.2,0.2-0.5,0.4-0.7,0.6c2.1-0.6,3.8-0.2,5.7,0.3c0.5-0.2,1.1-0.5,1.6-0.7c-1.7-0.4-3.4-0.7-5.2-1.1c-0.4,0.2-0.8,0.5-1.2,0.7
				c2.2-0.1,3.9,0.3,5.9,1c0.6-0.2,1.1-0.5,1.7-0.7c-1.7-0.4-3.5-0.7-5.2-1.2c-0.5,0.2-1.1,0.5-1.6,0.7c2.8,0.6,5.6,1.1,8.2,2.5
				c0.5,0.2,2-0.5,1.8-0.6c-1-0.5-1.9-1.1-2.8-1.7c-0.6,0.2-1.2,0.4-1.8,0.6c1.7,0.6,3.4,1.2,5.2,1.6c0.4,0.1,1.9-0.6,1.7-0.7
				c-3.7-1.4-7.6-0.8-11.5-1c-0.2,0.2-0.4,0.4-0.6,0.6c2.1-0.6,4-0.3,6.1,0.3c0.5-0.2,1-0.5,1.4-0.7c-4-0.3-7.9-0.4-11.8,0.5
				c-0.7,0.2-1.7,0.9-0.4,0.7c2.6-0.5,5.3-1,8-0.9c0.4-0.2,0.7-0.5,1.1-0.7c-2.3,0.2-4.6,0.1-6.9,0.2c-0.3,0.2-0.5,0.5-0.8,0.7
				c1.3-0.3,2.5-0.4,3.8-0.5c0.5,0,2.1-0.8,0.8-0.7c-1.5,0.1-2.9,0.2-4.3,0.5c-0.2,0-1.7,0.7-0.8,0.7c2.4-0.1,4.9-0.1,7.3-0.2
				c0.3,0,2-0.7,1.1-0.7c-2.6,0-5.1,0.3-7.7,0.8c-0.9,1-0.4,1.1,1.6,0.4c1.1-0.1,2.1-0.1,3.2-0.1c1.5,0,3,0.1,4.6,0.2
				c0.3,0,2-0.6,1.4-0.7c-2.7-0.8-5.2-0.9-7.8-0.1c-0.2,0.1-1.4,0.6-0.6,0.6c3.7,0.2,7.4-0.4,10.9,0.9c0.6-0.2,1.1-0.5,1.7-0.7
				c-1.7-0.4-3.3-0.9-4.9-1.5c-0.4-0.1-2.1,0.5-1.8,0.6c0.9,0.6,1.9,1.1,2.8,1.7c0.6-0.2,1.2-0.4,1.8-0.6c-2.7-1.4-5.5-1.9-8.4-2.6
				c-0.4-0.1-2.1,0.6-1.6,0.7c1.7,0.5,3.5,0.8,5.2,1.2c0.4,0.1,1.9-0.6,1.7-0.7c-2.3-0.8-4.4-1.3-6.8-1.1c-0.2,0-1.8,0.6-1.2,0.7
				c1.7,0.4,3.4,0.7,5.2,1.1c0.4,0.1,2.1-0.6,1.6-0.7c-2.6-0.7-4.9-0.9-7.4-0.1c-0.1,0-1.3,0.5-0.7,0.6c1.7,0.4,3.4,0.5,5.2,0.6
				c0.3,0,2-0.6,1.4-0.7c-2.4-0.4-4.6-0.3-7,0.5C372.4,24.4,373.6,24.5,374.4,24.3L374.4,24.3z"/>
		</g>
	</g>
	<g>
		<g>
			<path class="st1" d="M371.3,23.4c1.1-0.3,2.1-0.5,3.2-0.6c-0.2-0.4-0.4-0.7-0.5-1.1c-2,1.2-4.8,1.3-5.7,3.8
				c-0.2,0.7,0.6,0.9,1.1,0.7c2.2-0.6,4.3-2.6,6.7-2.4c-0.1-0.4-0.2-0.7-0.3-1.1c-0.2,0.1-0.5,0.3-0.7,0.4c-1.2,0.6-0.1,1.6,0.8,1.1
				c0.4-0.2,0.8-0.4,1.1-0.7c0.6-0.4,0.3-1-0.3-1.1c-3-0.3-5,1.7-7.7,2.5c0.4,0.2,0.7,0.5,1.1,0.7c0.7-2,3.5-2.2,5.1-3.2
				c0.7-0.5,0.1-1.2-0.5-1.1c-1.3,0.1-2.5,0.4-3.7,0.7C369.7,22.5,370.1,23.7,371.3,23.4L371.3,23.4z"/>
		</g>
	</g>
	<g>
		<g>
			<path class="st1" d="M371.5,22.8c1.2-0.4,2.3-0.4,3.6,0.1c0.1-0.3,0.1-0.7,0.2-1c-1.5,0.6-3.1,0.7-4.7,0.9
				c0.1,0.4,0.2,0.7,0.3,1.1c1.3-0.7,2.7-1.1,4.3-0.8c0.1-0.3,0.1-0.7,0.2-1c-1.2,0.6-2.5,0.6-3.8,0.6c-0.4,0-1,0.1-1.3,0.6
				c-0.2,0.4,0.2,0.6,0.5,0.7c1.9,0.1,3.7-0.1,5.4-0.9c0.4-0.2,0.9-0.9,0.2-1c-2.2-0.4-4.3,0-6.2,1c-0.8,0.4-0.7,1.2,0.3,1.1
				c1.9-0.3,3.9-0.4,5.7-1.2c0.5-0.2,0.9-0.8,0.2-1c-1.6-0.6-3.4-0.5-5,0C370.1,22,370.4,23.1,371.5,22.8L371.5,22.8z"/>
		</g>
	</g>
	<g>
		<g>
			<path class="st1" d="M367.4,24.4c-1,0.9-1.8,1.9-2.3,3.1c-0.3,0.7,1.5,0.2,1.7,0c1.4-1.2,2.8-2.6,4.7-2.8
				c-0.1-0.3-0.1-0.6-0.2-0.8c-1.8,0.6-3.2,1.8-4.2,3.4c-0.5,0.7,1.2,0.4,1.5,0.2c1.6-0.8,2.9-2.2,4.6-2.9c-0.3-0.2-0.6-0.4-1-0.6
				c-1.2,0.7-2.3,1.5-3.2,2.6c0.6,0,1.2,0,1.8,0c0.9-1.4,2.3-1.9,3.9-2.2c0.9-0.1,1.6-1.2,0.3-1c-1.8,0.3-3.6,0.7-5.3,1.2
				c0.2,0.2,0.5,0.4,0.7,0.7c1.5-0.8,2.9-1.6,4.6-1.6c0.1-0.3,0.2-0.6,0.3-0.9c-1.5,0.4-2.9,0.5-4.5,0.5c-0.7,0-2.1,1-0.8,1
				c1.9,0,3.7-0.1,5.5-0.6c0.6-0.2,1.3-0.9,0.3-0.9c-2.4-0.1-4.5,0.9-6.6,2.1c-0.9,0.5,0.1,0.8,0.7,0.7c1.6-0.4,3.2-0.8,4.8-1.1
				c0.1-0.3,0.2-0.6,0.3-1c-2.3,0.3-4.6,1.1-5.9,3.1c-0.5,0.7,1.5,0.4,1.8,0c0.7-0.9,1.6-1.5,2.6-2.1c1.1-0.6-0.4-0.8-1-0.6
				c-1.8,0.8-3.2,2.2-5,3.1c0.5,0.1,1,0.2,1.5,0.2c0.8-1.2,1.8-2.2,3.2-2.7c0.9-0.3,0.6-0.9-0.2-0.8c-2.6,0.3-4.6,1.9-6.6,3.5
				c0.6,0,1.2,0,1.7,0c0.4-1.1,1.1-1.8,1.9-2.6C369.8,23.9,367.8,24,367.4,24.4L367.4,24.4z"/>
		</g>
	</g>
	<g>
		<g>
			<path class="st1" d="M368.6,25.3c-1.6,0.4-3.1,1.1-4.1,2.4c-0.7,1,1.1,1.1,1.6,0.5c1-1.3,2.1-2.3,3.4-3.2
				c-0.5-0.2-0.9-0.4-1.4-0.6c-1.6,1.6-3,3.2-4.1,5.1c0.6-0.1,1.2-0.2,1.8-0.3c0-0.1-0.1-0.3-0.1-0.4c-0.2-0.9-1.8-0.2-1.9,0.3
				c-0.1,0.4-0.3,0.8-0.4,1.2c0.6-0.1,1.3-0.1,1.9-0.2c-0.1-2,0.7-3.8,2.1-5.1c0.3-0.3,0.2-0.7-0.2-0.8c-0.5-0.1-1,0-1.4,0.4
				c-1.6,1.5-2.5,3.6-2.4,5.8c0,1,1.7,0.5,1.9-0.2c0.1-0.4,0.3-0.8,0.4-1.2c-0.6,0.1-1.3,0.2-1.9,0.3c0.1,0.3,0.1,0.5,0.3,0.7
				c0.3,0.6,1.6,0.1,1.8-0.3c1-1.8,2.4-3.3,3.8-4.8c0.8-0.8-0.9-1-1.4-0.6c-1.4,1-2.7,2.2-3.8,3.5c0.5,0.2,1.1,0.3,1.6,0.5
				c0.7-1,1.7-1.4,2.8-1.7C370.1,26.2,369.8,25,368.6,25.3L368.6,25.3z"/>
		</g>
	</g>
	<g>
		<g>
			<path class="st1" d="M367,27.7c-0.5,0.6-0.9,1.1-1.3,1.7c-0.7,1,1.1,1.3,1.6,0.6c0.5-0.7,1-1.5,1.5-2.2c0.7-1-1.1-1.3-1.6-0.6
				s-1,1.5-1.5,2.2c0.5,0.2,1.1,0.4,1.6,0.6c0.4-0.6,0.8-1.2,1.3-1.7c0.3-0.3,0.2-0.8-0.3-1C367.9,27.2,367.3,27.3,367,27.7
				L367,27.7z"/>
		</g>
	</g>
	<g>
		<g>
			<path class="st1" d="M367,31.8c0.3-1.4,0.6-2.8,0.9-4.2c-0.6,0.1-1.3,0.2-1.9,0.4c0.1,0.3,0.2,0.7,0.3,1c0.1,0.8,2,0.3,1.9-0.5
				c0-0.4-0.1-0.7-0.3-1c-0.3-0.8-1.8-0.3-1.9,0.4c-0.3,1.4-0.6,2.8-0.9,4.2C364.9,32.8,366.9,32.6,367,31.8L367,31.8z"/>
		</g>
	</g>
	<g>
		<g>
			<path class="st1" d="M373.4,38.9c-3.4-1-6.4-2.7-8-6.1c-0.6,0.2-1.2,0.4-1.9,0.6c0.7,1,1.1,2,1.5,3.2c0.6-0.2,1.3-0.3,1.9-0.5
				c-0.5-1.1-0.8-2-1-3.2c-0.6,0.2-1.2,0.4-1.9,0.6c2.1,3,3.5,6.9,7.8,6.9c0.4,0,2.1-0.8,1-1c-3.8-0.9-6.2-4.1-7-7.8
				c-0.6,0.2-1.3,0.3-1.9,0.5c0.1,0.4,0.3,0.8,0.4,1.2c0.2,0.6,2.1,0.1,1.9-0.5c-0.2-0.8-0.3-1.7-0.4-2.5c-0.6,0.2-1.3,0.3-1.9,0.5
				c0.2,1.2,0.3,2.4,0.5,3.6c0.6-0.2,1.3-0.3,1.9-0.5c-0.5-1.4-0.6-2.6-0.4-4.1c-0.6,0.1-1.3,0.3-1.9,0.4c0.5,1.4,0.5,2.5-0.1,3.9
				c0.6-0.1,1.3-0.3,1.9-0.4c-0.4-0.9-0.6-1.5-0.6-2.6c-0.6,0.1-1.3,0.3-1.9,0.4c0,1.1,0,2-0.2,3c0.6-0.2,1.2-0.3,1.9-0.5
				c-0.1-0.3-0.3-0.5-0.4-0.8c-0.6,0.2-1.3,0.3-1.9,0.5c0.4,1,0.8,1.9,1.2,2.9c0.6-0.2,1.3-0.3,1.9-0.5c-1.1-2.1-2.3-5.1-0.1-6.9
				c-0.6,0-1.2,0-1.7,0c-0.3,1.3-0.4,2.4-0.3,3.7c0,0.6,1.9,0.2,1.9-0.4c0.3-1.9,0.7-3.6,2.2-5c-0.6,0-1.2,0.1-1.7,0.1
				c0,0.5,0,1.1-0.1,1.6c-0.1,0.7,1.8,0.4,1.9-0.3c0.2-1,0.1-0.9,0.1-1.9c0-0.6-1.5-0.1-1.7,0.1c-1.6,1.5-2.3,3.3-2.6,5.5
				c0.6-0.1,1.3-0.3,1.9-0.4c-0.1-1.3,0-2.2,0.3-3.4c0.2-0.7-1.5-0.2-1.7,0c-2.4,2.1-1.6,5.2-0.3,7.7c0.3,0.6,2.2,0.1,1.9-0.5
				c-0.4-1-0.8-1.9-1.2-2.9c-0.3-0.6-2.2-0.1-1.9,0.5c0.2,0.5,0.2,0.6,0.5,1c0.3,0.5,1.8,0,1.9-0.5c0.2-1.1,0.3-2.1,0.2-3.3
				c0-0.6-1.9-0.2-1.9,0.4c0,1.1,0.1,1.9,0.6,2.8c0.3,0.6,1.7,0.1,1.9-0.4c0.6-1.5,0.6-2.7,0.1-4.1c-0.2-0.6-1.9-0.2-1.9,0.4
				c-0.2,1.5-0.1,2.9,0.4,4.4c0.2,0.6,2,0.1,1.9-0.5c-0.1-1.2-0.3-2.4-0.5-3.6c-0.1-0.6-2-0.2-1.9,0.5c0.1,0.9,0.2,1.7,0.4,2.5
				c0.6-0.2,1.3-0.3,1.9-0.5c-0.1-0.4-0.3-0.8-0.4-1.2c-0.2-0.6-2.1-0.1-1.9,0.5c0.9,4.1,3.5,7.3,7.7,8.3c0.3-0.3,0.7-0.7,1-1
				c-3.6,0-5-4.1-6.7-6.6c-0.3-0.5-1.9,0-1.9,0.6c0.2,1.2,0.5,2.2,1,3.2c0.3,0.6,2.1,0.1,1.9-0.5c-0.4-1.2-0.9-2.3-1.6-3.4
				c-0.3-0.5-2.1,0.1-1.9,0.6c1.6,3.5,4.7,5.4,8.4,6.5C372.4,40,374.2,39.2,373.4,38.9L373.4,38.9z"/>
		</g>
	</g>
	<g>
		<g>
			<path class="st1" d="M374.3,39.6c-0.8,0.1-1.6,0-2.4-0.1c-0.2,0.3-0.5,0.6-0.7,1c0.5-0.1,1-0.1,1.5-0.1c0.4,0,1-0.1,1.3-0.5
				c0.3-0.4-0.2-0.5-0.5-0.5c-0.7,0-1.4,0.1-2,0.1c-0.4,0-0.8,0.2-1,0.5s0,0.4,0.3,0.5c1,0.1,1.9,0.2,2.9,0.1c0.4,0,1-0.1,1.3-0.5
				C375.1,39.7,374.6,39.6,374.3,39.6L374.3,39.6z"/>
		</g>
	</g>
	<g>
		<g>
			<path class="st1" d="M373.2,39c-0.5,0-1,0-1.5,0.1c-0.4,0.1-0.8,0.2-1,0.5c-0.2,0.3,0,0.5,0.3,0.6c0.7,0.2,1.3,0.3,2,0.4
				c0.4,0,1-0.2,1.3-0.5c0.3-0.4-0.2-0.6-0.5-0.6c-0.5-0.1-1.1-0.2-1.6-0.3c-0.2,0.4-0.5,0.7-0.7,1.1c0.3-0.1,0.7-0.1,1,0
				c0.4,0,1-0.2,1.3-0.5C374,39.2,373.5,39,373.2,39L373.2,39z"/>
		</g>
	</g>
	<g>
		<g>
			<path class="st1" d="M368.5,39.6c0.3,0,0.7,0.1,1,0.2c0.5,0.1,0.9,0,1.4-0.2c0.2-0.1,0.6-0.4,0.2-0.5c-0.5-0.2-1-0.4-1.5-0.5
				c-0.5,0.3-0.9,0.5-1.4,0.8c1.4,0.1,2.7,0.4,4,0.9c0.3,0.1,0.8,0,1.1-0.1c0.1,0,0.9-0.4,0.6-0.6c-0.8-0.4-1.6-0.7-2.5-0.8
				c-0.4,0-0.8,0.1-1.2,0.3c-0.2,0.1-0.6,0.4-0.2,0.5c0.7,0.2,1.4,0.4,2.2,0.6c0.5,0.1,0.9,0,1.4-0.2c0.1-0.1,0.7-0.5,0.2-0.5
				c-0.7-0.1-1.5-0.3-2.2-0.6c-0.5,0.3-0.9,0.5-1.4,0.8c0.7,0.1,1.3,0.3,1.9,0.6c0.6-0.2,1.1-0.5,1.7-0.7c-1.4-0.5-2.8-0.8-4.3-0.9
				c-0.4,0-0.8,0.1-1.2,0.3c-0.2,0.1-0.6,0.4-0.2,0.5c0.5,0.2,1,0.4,1.5,0.5c0.5-0.3,1.1-0.5,1.6-0.8c-0.4-0.1-0.9-0.1-1.3-0.2
				s-1,0.1-1.4,0.4C368,39.4,368.1,39.6,368.5,39.6L368.5,39.6z"/>
		</g>
	</g>
	<g>
		<g>
			<path class="st1" d="M364.5,35.9c-0.1,1.3,1,2,2.1,2.6c0.4,0.2,2.1-0.2,1.7-0.8c-0.7-0.9-1.4-1.7-2.2-2.5
				c-0.6,0.3-1.2,0.5-1.8,0.8c0.7,0.8,1.5,1.4,2.4,2c0.4,0.3,2.2-0.4,1.7-0.8c-0.8-0.7-1.5-1.4-2.1-2.2
				C365.7,35.3,365.1,35.5,364.5,35.9c0.6,0.4,1.1,0.9,1.7,1.4c0.5,0.4,2.3-0.1,1.8-0.8c-0.6-0.7-1.2-1.5-1.7-2.3
				c-0.6,0.3-1.2,0.5-1.8,0.8c0.6,0.7,1.2,1.4,1.8,2.1c0.6-0.3,1.2-0.5,1.8-0.8c-0.5-0.5-0.9-1-1.2-1.7c-0.6,0.2-1.2,0.4-1.9,0.6
				c0.7,1,1.4,1.9,2.1,2.9c0.6-0.3,1.1-0.6,1.7-0.8c-0.8-0.5-1.5-1.1-2.2-1.7c-0.4-0.3-2.1-0.1-1.9,0.6c0.1,0.4,0.3,0.8,0.6,1.1
				c0.6-0.3,1.1-0.6,1.7-0.8c-0.4-0.2-0.8-0.3-1.2-0.5c-0.4-0.2-2.2,0.3-1.7,0.8c0.4,0.4,0.8,0.7,1.3,1c0.5-0.3,1-0.6,1.5-0.9
				c-0.1-0.1-0.3-0.1-0.4-0.2c-0.5,0.3-1,0.6-1.5,0.9c1.2,0.7,2.5,1.3,3.9,1.7c0.4,0.1,2.2-0.5,1.4-1c-0.7-0.4-1.4-0.8-2-1.3
				c-0.4-0.3-2.2,0.4-1.7,0.8c0.9,0.8,1.9,1.3,3,1.7c0.5,0.2,2.4-0.4,1.5-0.9c-1-0.6-2-1.1-2.9-1.9c-0.6,0.3-1.1,0.6-1.7,0.8
				c1,0.6,1.9,1.2,2.8,1.9c0.6-0.3,1.1-0.6,1.7-0.8c-1-0.4-2-0.7-3-1c-0.6-0.2-2.3,0.7-1.2,1.1c0.9,0.3,1.8,0.6,2.7,0.9
				c0.4,0.2,2.3-0.4,1.7-0.8c-1-0.8-2-1.4-3.1-2.1c-0.5-0.3-2.2,0.4-1.7,0.8c1,0.8,2.1,1.4,3.2,2.1c0.5-0.3,1-0.6,1.5-0.9
				c-1-0.4-1.9-0.9-2.7-1.6c-0.6,0.3-1.1,0.6-1.7,0.8c0.7,0.4,1.4,0.8,2,1.3c0.5-0.3,0.9-0.7,1.4-1c-1.3-0.3-2.4-0.9-3.6-1.5
				c-0.5-0.3-2.3,0.4-1.5,0.9c0.1,0.1,0.3,0.2,0.4,0.2c0.5,0.3,2.3-0.4,1.5-0.9c-0.4-0.2-0.7-0.5-1-0.8c-0.6,0.3-1.1,0.6-1.7,0.8
				c0.4,0.2,0.8,0.3,1.2,0.5c0.4,0.2,2.1-0.1,1.7-0.8c-0.2-0.3-0.3-0.6-0.4-0.9c-0.6,0.2-1.2,0.4-1.9,0.6c0.8,0.7,1.6,1.4,2.5,1.9
				c0.4,0.2,2.1-0.2,1.7-0.8c-0.7-1-1.4-1.9-2.1-2.9c-0.3-0.5-2.1,0.1-1.9,0.6c0.4,0.7,0.8,1.3,1.4,1.9c0.5,0.5,2.3-0.2,1.8-0.8
				c-0.6-0.7-1.2-1.4-1.8-2.1c-0.4-0.5-2.2,0.1-1.8,0.8c0.5,0.8,1.1,1.6,1.7,2.3c0.6-0.3,1.2-0.5,1.8-0.8c-0.6-0.5-1.1-1-1.7-1.5
				c-0.5-0.4-2.3,0.1-1.8,0.8c0.6,0.8,1.3,1.5,2.1,2.2c0.6-0.3,1.1-0.6,1.7-0.8c-0.8-0.5-1.5-1.1-2.1-1.8c-0.5-0.5-2.3,0.2-1.8,0.8
				c0.8,0.8,1.6,1.6,2.2,2.5c0.6-0.3,1.1-0.6,1.7-0.8c-0.7-0.4-1.7-0.9-1.7-1.9C366.4,34.9,364.5,35.3,364.5,35.9L364.5,35.9z"/>
		</g>
	</g>
	<g>
		<g>
			<path class="st0" d="M368.9,25.8c-1.3,0.3-2.5,2.3-3,3.4c-0.4,1,1.5,0.6,1.8,0.1c0.7-1,1.5-1.9,2.3-2.8c-0.5-0.1-1.1-0.3-1.6-0.4
				c-0.6,0.7-1.1,1.4-1.6,2.1c-0.6,0.9,1.3,0.6,1.7,0.3c0.4-0.4,0.7-0.8,1.1-1.3c0.6-0.8-1.4-0.7-1.8-0.1c-0.5,0.7-1,1.5-1.6,2.3
				c-0.5,0.8,1.3,0.7,1.7,0.3c0.7-0.8,1.2-1.6,1.7-2.5s-1.5-0.7-1.8-0.1c-0.7,1.2-1.4,2.3-2.1,3.5c0.6-0.1,1.3-0.1,1.9-0.2
				c0-0.2-0.1-0.4-0.1-0.6c-0.1-0.8-1.7-0.2-1.9,0.2c-0.9,1.8-1.5,3.6-1.9,5.5c-0.2,0.9,1.7,0.4,1.9-0.2c0.4-1,0.7-2,0.9-3
				c-0.6,0.1-1.3,0.1-1.9,0.2c0,0.7,0,1.3,0,1.9c0.1,0.8,1.8,0.2,1.9-0.4c0.4-1.3,0.6-2.7,0.8-4c0.1-0.9-1.8-0.5-1.9,0.2
				c-0.2,1.1-0.2,2.1-0.3,3.2c-0.1,0.9,1.7,0.5,1.9-0.2c0.3-0.9,0.3-1.8,0.3-2.8c-0.6,0.1-1.3,0.2-1.9,0.4c0,0.9,0.1,1.8,0.1,2.7
				c0.6-0.1,1.3-0.1,1.9-0.2c0-0.9,0.1-1.8,0.1-2.7c0-0.9-1.8-0.5-1.9,0.2c-0.1,0.5-0.1,1-0.1,1.5c0,0.9,1.9,0.5,1.9-0.2
				c0-0.5,0-1,0.1-1.5c-0.6,0.1-1.3,0.1-1.9,0.2c0,0.9-0.1,1.8-0.1,2.7s1.9,0.5,1.9-0.2c0.1-1,0-2-0.1-3.1c0-0.7-1.9-0.3-1.9,0.4
				c0,1,0,1.9-0.3,2.8c0.6-0.1,1.3-0.1,1.9-0.2c0.1-1.1,0.1-2.1,0.3-3.2c-0.6,0.1-1.3,0.1-1.9,0.2c-0.2,1.4-0.4,2.7-0.8,4
				c0.6-0.1,1.3-0.2,1.9-0.4c-0.1-0.5-0.1-1.1,0-1.6c0-0.9-1.8-0.5-1.9,0.2c-0.2,1-0.6,2-0.9,3c0.6-0.1,1.3-0.1,1.9-0.2
				c0.4-1.8,0.9-3.5,1.8-5.2c-0.6,0.1-1.3,0.1-1.9,0.2c0,0.2,0.1,0.4,0.1,0.6c0.1,0.8,1.6,0.2,1.9-0.2c0.7-1.2,1.4-2.3,2.1-3.5
				c-0.6,0-1.2-0.1-1.8-0.1c-0.4,0.8-0.8,1.5-1.4,2.2c0.6,0.1,1.1,0.2,1.7,0.3c0.5-0.7,1-1.5,1.6-2.3c-0.6,0-1.2-0.1-1.8-0.1
				c-0.2,0.4-0.5,0.7-0.8,1c0.6,0.1,1.1,0.2,1.7,0.3c0.4-0.7,0.8-1.2,1.3-1.8c0.8-0.9-1.1-0.9-1.6-0.4c-0.9,1-1.8,2-2.6,3.1
				c0.6,0,1.2,0.1,1.8,0.1c0.2-0.5,0.4-0.8,0.7-1.2c0.2-0.3,0.4-0.5,0.6-0.8c0.2-0.2,0.8-0.5,0.1-0.4
				C370.4,26.6,370.1,25.5,368.9,25.8L368.9,25.8z"/>
		</g>
	</g>
	<g>
		<g>
			<path class="st0" d="M404.6,28.6c-2.4,1.9-5,7.7-0.7,9.1c3.5,1.2,8.9,0.8,12.2-0.6c4.4-1.9,2.4-7.1-0.7-9.2
				c-4.1-2.8-9,0.4-12.1,3.1c0.6,0,1.2,0,1.8-0.1c-0.3-4.9,11.8-4.5,10.9,2.4c0.6-0.2,1.2-0.3,1.9-0.5c-1.1-1.6-1.8-3.3-2.9-4.9
				c-0.4-0.6-2-0.1-1.9,0.7c0.3,1.6,0.8,3.1,1,4.6c0.1,0.8,2,0.3,1.9-0.5c0-0.9-0.1-1.7-0.2-2.6c-0.1-0.7-1.9-0.3-1.9,0.4
				c0,1,0,1.9,0.1,2.9c0.6-0.2,1.3-0.3,1.9-0.5c-0.4-1.4-0.8-2.7-1.7-3.9c-0.4-0.5-1.7-0.1-1.9,0.5c-0.3,1.3-0.4,2.6-0.4,4
				c0.6-0.1,1.3-0.2,1.9-0.4c-0.4-1.5-0.6-3.1-1-4.6c-0.2-0.8-1.8-0.2-1.9,0.4c-0.4,1.5-0.7,3-1,4.5c0.6-0.1,1.3-0.1,1.9-0.2
				c0.1-1.4,0.2-2.8,0.2-4.2c0-0.9-1.6-0.4-1.9,0c-0.8,1.2-1.4,2.4-1.9,3.8c0.6,0,1.3,0,1.9,0c0.4-1.1,0.8-2.2,1-3.4
				c0.1-0.8-1.5-0.4-1.8-0.1c-0.9,1-1.6,2-2.2,3.2c-0.5,0.9,1.5,0.7,1.8,0.1c0.7-1.2,1.3-2.3,1.8-3.5c0.3-0.7-1.3-0.4-1.6-0.2
				c-1.2,0.9-2,1.8-2.8,3c-0.6,0.9,1.3,0.6,1.7,0.3c1.1-1,1.8-2.1,2.3-3.6c0.2-0.7-1.1-0.5-1.4-0.4c-1.2,0.6-2,1.4-2.8,2.4
				c-0.6,0.8,1.2,0.6,1.5,0.4c1-0.6,1.7-1.2,2.4-2c-0.5-0.1-1.1-0.3-1.6-0.4c-0.2,0.4-0.5,0.6-0.9,0.9c-0.9,0.7,0.9,0.8,1.4,0.6
				c0.7-0.4,1.4-0.8,2.2-1.1c0.8-0.4,0.6-1.1-0.3-1.1c-1.6,0.1-3,0.5-4.5,1c-1.1,0.4-0.3,1.2,0.5,1c0.9-0.2,1.7-0.5,2.6-0.8
				c1.3-0.5,0.1-1.3-0.8-0.9c-3.9,1.4-5.6,3.7-6.2,7.7c-0.1,0.9,1.7,0.4,1.9-0.2c0.3-1,0.6-2,0.8-3c0.1-0.9-1.8-0.5-1.9,0.2
				c-0.3,1-0.4,1.9-0.4,3c0,0.7,1,0.6,1.4,0.4c1.5-0.7,1.9-1.8,2.2-3.4c0.1-0.9-1.5-0.4-1.8-0.1c-2.8,2.6,0.6,4.8,2.6,2.3
				c2-2.4-0.7-4.7-2.9-2.6c-3.1,2.8,1.2,5.2,3.1,1.7c0.5-1,0.4-2.1-0.9-2c-1.4,0.2-2.5,1.4-2.9,2.7c-0.2,0.6,0.9,0.5,1.1,0.5
				c1.6-0.4,2.4-1.4,2.8-3c0.2-0.7-1.1-0.5-1.4-0.4c-0.9,0.3-1.5,0.8-2.1,1.5c-0.8,0.9,1.1,0.8,1.6,0.4c0.6-0.5,1-0.9,1.4-1.5
				c-0.6,0-1.2-0.1-1.8-0.1c-0.3,0.5-0.5,0.9-0.6,1.5c-0.1,0.9,1.9,0.5,1.9-0.2c0-0.4,0.2-0.8,0.4-1.2c0.5-0.9-1.5-0.6-1.8-0.1
				s-0.7,0.9-1.1,1.2c0.5,0.1,1.1,0.3,1.6,0.4c0.5-0.3,0.9-0.7,1.4-1c-0.5-0.1-0.9-0.2-1.4-0.4c0,0.8-0.4,1.4-1.2,1.7
				c0.4,0.2,0.7,0.3,1.1,0.5c0.8-0.7,0.9-1.1,0.2-1.1c-0.3-0.2-0.3-0.4,0-0.5c0.6,1.5-1.2,1.6,0.4,0.2c-0.6,0-1.2-0.1-1.8-0.1
				c0,0.9-0.4,1.6-1.1,2.3c0.5,0.1,0.9,0.2,1.4,0.4c0-1.1,0.1-2,0.4-3c-0.6,0.1-1.3,0.1-1.9,0.2c-0.2,1-0.4,2-0.8,3
				c0.6-0.1,1.3-0.1,1.9-0.2c0.5-3.4,1.7-5.3,5.1-6.6c-0.3-0.3-0.5-0.6-0.8-0.9c-0.7,0.3-1.4,0.5-2.1,0.7c0.2,0.3,0.4,0.7,0.5,1
				c1.1-0.5,2.3-0.7,3.5-0.7c-0.1-0.4-0.2-0.7-0.3-1.1c-0.9,0.4-1.7,0.8-2.6,1.4c0.5,0.2,0.9,0.4,1.4,0.6c0.4-0.2,0.6-0.5,0.9-0.9
				c0.8-0.9-1.1-0.9-1.6-0.4c-0.6,0.7-1.3,1.3-2.1,1.7c0.5,0.1,1,0.3,1.5,0.4c0.4-0.7,1-1.2,1.7-1.6c-0.5-0.1-0.9-0.2-1.4-0.4
				c-0.4,1.2-1,2.1-1.9,2.9c0.6,0.1,1.1,0.2,1.7,0.3c0.6-1,1.3-1.8,2.2-2.5c-0.5-0.1-1.1-0.2-1.6-0.2c-0.4,1.2-1,2.2-1.7,3.2
				c0.6,0,1.2,0.1,1.8,0.1c0.6-1.1,1.2-1.9,2-2.8c-0.6,0-1.2-0.1-1.8-0.1c-0.2,1.2-0.6,2.2-1,3.4c-0.3,0.7,1.6,0.5,1.9,0
				c0.5-1.3,1.1-2.5,1.9-3.8c-0.6,0-1.3,0-1.9,0c-0.1,1.4-0.2,2.8-0.2,4.2c0,0.9,1.8,0.5,1.9-0.2c0.3-1.5,0.6-3,1-4.5
				c-0.6,0.1-1.3,0.2-1.9,0.4c0.4,1.5,0.6,3.1,1,4.6c0.2,0.7,1.9,0.3,1.9-0.4c0-1.4,0.1-2.7,0.4-4c-0.6,0.2-1.2,0.3-1.9,0.5
				c0.9,1.1,1.2,2.3,1.6,3.6c0.2,0.8,2,0.3,1.9-0.5c-0.1-0.9-0.2-1.7-0.1-2.6c-0.6,0.1-1.3,0.2-1.9,0.4c0.1,0.9,0.2,1.7,0.2,2.6
				c0.6-0.2,1.3-0.3,1.9-0.5c-0.2-1.6-0.7-3.1-1-4.6c-0.6,0.2-1.2,0.4-1.9,0.7c1.1,1.6,1.8,3.3,2.9,4.9c0.4,0.5,1.8,0.1,1.9-0.5
				c1.1-8.8-15.2-8.5-14.8-1.6c0,0.7,1.5,0.2,1.8-0.1c2.9-2.6,6.5-4.7,10-1.8c2.7,2.3,2.5,6.1-1.2,7.1c-2,0.5-4.4,0.4-6.5,0.3
				c-1.6,0-3.1-0.5-3.5-2.2c-0.5-1.9,0.7-4.4,2.1-5.5C406.8,28.5,405.2,28.1,404.6,28.6L404.6,28.6z"/>
		</g>
	</g>
	<g>
		<g>
			<path class="st0" d="M408.7,34.2c-1.2,0.3-2.2,0.7-2.9,1.8c-0.1,0.1,0.1,0.2,0.2,0.2c2.3,0.8,4.7,0.7,7.1,0.4
				c0.8-0.1,1.7-0.9,0.4-0.7c-1.8,0.2-3.6,0.7-5.4,0.4c-0.5,0.3-0.9,0.5-1.4,0.8c2.3,0.1,4.4,0.3,6.7-0.3c0.2-0.1,1.4-0.7,0.5-0.7
				c-1.7-0.1-3.5,0.2-5.1-0.7c-0.5-0.3-2.1,0.5-1.8,0.7c1.7,1,3.7,0.7,5.7,0.8c0.2-0.2,0.4-0.5,0.5-0.7c-1.8,0.5-3.5,0.3-5.3,0.2
				c-0.3,0-2,0.7-1.4,0.8c2.2,0.4,4.4-0.1,6.6-0.4c0.1-0.2,0.2-0.5,0.4-0.7c-1.1,0.2-2.2,0.2-3.4,0.2c-0.6,0-1.1-0.2-1.6-0.3
				c-0.4-0.1-0.8-0.6-0.1-0.8c0.3-0.1,1-0.2,1.1-0.5C409.7,34.1,408.8,34.2,408.7,34.2L408.7,34.2z"/>
		</g>
	</g>
	<g>
		<g>
			<path class="st0" d="M409.4,27.7c-0.8-0.8-2.2-0.5-3.1,0.1s-1.6,1.7-1.9,2.8c-0.2,0.7,1.8,0.4,1.9-0.3c0.2-0.6,0.4-1.1,0.8-1.6
				c0.1-0.2,0.3-0.4,0.5-0.5c0.2-0.2-0.1,0-0.3,0c0.1,0,0.2,0.1,0.2,0.2C408.1,28.9,409.9,28.2,409.4,27.7L409.4,27.7z"/>
		</g>
	</g>
	<g>
		<g>
			<path class="st0" d="M407.9,26.6c-3.5,0.4-6.1,2.4-7,5.8c-1,3.5,1.5,6.1,4.9,6.1c0.4,0,2.2-0.7,1.3-0.8c-6.1-0.1-5.5-9.9,0-10.5
				C407.5,27.3,409.1,26.5,407.9,26.6L407.9,26.6z"/>
		</g>
	</g>
	<g>
		<g>
			<path class="st0" d="M372.2,23.4c-0.2-1.6-5.2,1.7-5.8,2.2c0.6-0.1,1.2-0.2,1.8-0.3c0.6-0.9,1.4-2.3,2.5-2.7
				c-0.2-0.1-0.4-0.3-0.7-0.4c-1.7,0.6-3.4,1.6-4.5,3.1c-0.2,0.3,0.7,0.2,0.8,0.2c0.4-0.1,0.9-0.2,1.1-0.5c0.7-1.1,2-1.9,3.2-2.4
				c0.1,0,0.9-0.4,0.6-0.5c-0.3-0.2-0.9,0-1.2,0.1c-1.7,0.6-2.8,2-3.8,3.5c-0.2,0.2,0.5,0.2,0.5,0.2c0.4,0,1-0.2,1.3-0.5
				c0.4-0.4,0.8-0.6,1.3-0.9c0.3-0.2,0.6-0.4,0.9-0.6c0.1-0.1,0.3-0.1,0.4-0.2c0.2-0.1-0.6-0.1-0.6,0.2
				C370.3,24.3,372.2,23.9,372.2,23.4L372.2,23.4z"/>
		</g>
	</g>
	<g>
		<g>
			<path class="st0" d="M370,22.3c-1.7,0.9-2.7,2.5-3.2,4.3c-0.2,0.7,1.7,0.4,1.9-0.2c0.4-1.5,1.1-2.7,2.5-3.5
				c0.3-0.2,0.6-0.6,0.2-0.8C371,21.9,370.4,22.1,370,22.3L370,22.3z"/>
		</g>
	</g>
	<g>
		<g>
			<path class="st0" d="M373.2,24.2c1.1,0.7,2.9,0.1,4.1-0.1c0.2,0,1.8-0.7,0.8-0.7c1.6,0.5,3.3,0.8,5,0.9c0.5-0.2,1-0.5,1.4-0.8
				c-3.6,0.1,2.6,1.5,3.3,1.7c0.5-0.2,1.1-0.5,1.6-0.7c-1.2-0.1-2.4-0.4-3.6-0.7c-0.3-0.1-2,0.5-1.7,0.7c1.5,0.8,2.6,1.1,4.3,1.3
				c3.4,0.3,6,1.4,9,2.9c0.6-0.2,1.2-0.4,1.8-0.7c-2.9-1.3-7.5-1.9-9.9-3.8c-0.5,0.2-1,0.5-1.5,0.7c2.4-0.1,6.4,2.1,8.5,3.4
				c0.6-0.2,1.1-0.5,1.7-0.7c-1.1-0.4-2.2-0.9-3.3-1.3c-0.5-0.2-2,0.6-1.8,0.7c1.2,0.5,2.3,1,3.5,1.4c0.3,0.1,2-0.5,1.7-0.7
				c-2.5-1.6-6-3.7-9-3.6c-0.2,0-1.9,0.4-1.5,0.7c2.6,2.1,6.9,2.5,9.9,3.8c0.5,0.2,2-0.5,1.8-0.7c-1.7-0.8-3.1-1.7-4.9-2.2
				c-2.8-0.9-5.8-0.4-8.4-1.9c-0.6,0.2-1.1,0.5-1.7,0.7c1.2,0.3,2.4,0.5,3.6,0.7c0.4,0,2.2-0.6,1.6-0.7c-2.5-0.6-4.9-0.9-7.4-1
				c-0.4,0-2.2,0.7-1.3,0.8c0.8,0.1,1.7,0.1,2.5,0.1c0.3,0,2-0.6,1.4-0.8c-2.7-0.5-5.1-0.5-7.8-0.1c-0.3,0-1.7,0.7-0.8,0.7
				c1.6-0.8,1.3-1-1-0.5C374.6,23.3,373,24.1,373.2,24.2L373.2,24.2z"/>
		</g>
	</g>
	<g>
		<g>
			<path class="st0" d="M401.5,34.8c1.2,1.2,3,1.3,4.5,1.8c0.6,0.2,1.7-0.1,1.5-0.9c-0.4-2.2-4.1-2.2-4.4,0s5.2,1.2,3.4-1
				c-1.4-1.8-5.1,1.9-1.4,2.4c0.8,0.1,2.2-0.6,2.1-1.6c-0.1-0.5-0.9-0.8-0.9-1.2c-0.1-1.3,1.2-3.2,1.9-4.2c0.7-0.8-0.6-1.3-1.3-0.9
				c-3.6,2.1,0,4.7,2.1,1.6c0.7-1.1-1-1.2-1.6-0.6c-1.2,1.2-2.5,4-0.2,4.9c2,0.8,4.3-1.1,5.1-2.7c0.2-0.3-0.1-0.7-0.4-0.8
				c-2-0.5-6.6,1.8-4.6,4.2c1.7,2,5.8-1.3,6.7-2.8c0.3-0.6-0.4-0.9-0.9-0.9c-1.5,0-5.8,1.6-4.2,3.6c1.4,1.7,4.6-1.4,5.1-2.6
				c0.2-0.4-0.2-0.8-0.6-0.9c-2-0.1-3.6,0.9-4.2,2.8c-0.1,0.5,0.1,0.8,0.6,0.9c1.8,0.4,3.6-0.7,4.6-2.2c0.3-0.4,0.1-1-0.5-1.1
				c-1.2-0.1-5,0.6-4.5,2.6c0.2,0.9,1.1,0.9,1.8,0.9c0.5,0,1.1-0.3,1.6-0.5c1.2-0.4,2-0.5,3.3-0.3c0.6,0.1,2-0.8,1.1-1.3
				c-0.8-0.5-1-0.5-2-0.4c-1.1,0.1-1.5,1.7-0.2,1.5c0.2,0,0.4,0.1,0.7,0.1c0.4-0.4,0.7-0.9,1.1-1.3c-1-0.1-2.1-0.5-3.2-0.1
				c-0.4,0.1-0.8,0.3-1.1,0.5c-1.3,0.6,0.4-0.1,0.7-0.1c-0.2-0.4-0.3-0.7-0.5-1.1c-0.5,0.8-1.3,1.3-2.4,1.3c0.2,0.3,0.4,0.6,0.6,0.9
				c0.6-0.5,1.1-1,1.7-1.6c-0.2-0.3-0.4-0.6-0.6-0.9c-0.3,0.6-0.8,1-1.3,1.4c0.6-0.4,1.4-0.7,2.1-0.7c-0.3-0.3-0.6-0.6-0.9-0.9
				c-0.3,0.5-0.8,0.9-1.3,1.2c-1.7,1.2-1.5-1.5,0-1.1c-0.1-0.3-0.3-0.5-0.4-0.8c-0.6,1.5-1.4,1.5-2.3,0c0.2-0.5,0.5-0.9,0.9-1.3
				c-0.5-0.2-1.1-0.4-1.6-0.6c0.1,0.1,0.3,0.2,0.4,0.3c-0.4-0.3-0.8-0.6-1.3-0.9c-1,1.2-1.7,2.7-2.1,4.2c-0.5,1.7,0.8,1.2,1,2.3
				c0.5-0.3,1-0.6,1.5-0.9c-1.4-0.4-3.1-0.5-4.1-1.6C402.3,33,400.7,34,401.5,34.8L401.5,34.8z"/>
		</g>
	</g>
	<g>
		<g>
			<path class="st0" d="M442.5,18.9c-0.3,0.1-0.8,0.2-0.8,0.6c-0.1,0.3,0.6,1.3,0.7,1.6c0.6,1.4,1.6,3,1.1,4.6
				c-0.1,0.3,1.7,0.1,1.9-0.3c0.4-1.1,0.1-2.1-0.3-3.1c-0.2-0.6-0.5-1.1-0.8-1.7c-0.1-0.2-0.8-1.4-0.7-1.6c-0.2,0.1-0.4,0.3-0.6,0.4
				c0.1,0,0.1,0,0.2-0.1C444.5,18.8,443.3,18.6,442.5,18.9L442.5,18.9z"/>
		</g>
	</g>
	<g>
		<g>
			<path class="st0" d="M445,21.6c-0.2-1-0.3-1.9-0.7-2.8c-0.3-0.8-2.3-0.2-1.9,0.5c0.4,0.9,0.5,1.9,0.7,2.8
				C443.2,22.9,445.2,22.4,445,21.6L445,21.6z"/>
		</g>
	</g>
</g>
</svg>
